<mxfile host="app.diagrams.net" agent="Mozilla/5.0 (Windows NT 10.0; Win64; x64) AppleWebKit/537.36 (KHTML, like Gecko) Chrome/130.0.0.0 Safari/537.36 Edg/130.0.0.0" version="24.8.1">
  <diagram name="Page-1" id="NjnIXUocAEQQhWOrC-Ya">
    <mxGraphModel dx="450" dy="186" grid="1" gridSize="10" guides="1" tooltips="1" connect="1" arrows="1" fold="1" page="1" pageScale="1" pageWidth="850" pageHeight="1100" math="0" shadow="0">
      <root>
        <mxCell id="0" />
        <mxCell id="1" parent="0" />
        <mxCell id="4qRBzfi4ipFG8KXShlsR-1" value="LibraRoom Reservation System" style="swimlane;whiteSpace=wrap;html=1;" vertex="1" parent="1">
          <mxGeometry x="230" y="50" width="370" height="890" as="geometry" />
        </mxCell>
        <mxCell id="4qRBzfi4ipFG8KXShlsR-2" value="Register Room" style="ellipse;whiteSpace=wrap;html=1;" vertex="1" parent="4qRBzfi4ipFG8KXShlsR-1">
          <mxGeometry x="135" y="50" width="120" height="80" as="geometry" />
        </mxCell>
        <mxCell id="4qRBzfi4ipFG8KXShlsR-3" value="Manages Room" style="ellipse;whiteSpace=wrap;html=1;" vertex="1" parent="4qRBzfi4ipFG8KXShlsR-1">
          <mxGeometry x="135" y="160" width="120" height="80" as="geometry" />
        </mxCell>
        <mxCell id="4qRBzfi4ipFG8KXShlsR-4" value="Manages furniture&amp;nbsp;" style="ellipse;whiteSpace=wrap;html=1;" vertex="1" parent="4qRBzfi4ipFG8KXShlsR-1">
          <mxGeometry x="135" y="260" width="120" height="80" as="geometry" />
        </mxCell>
        <mxCell id="4qRBzfi4ipFG8KXShlsR-5" value="Manages electric Equpment&amp;nbsp;" style="ellipse;whiteSpace=wrap;html=1;" vertex="1" parent="4qRBzfi4ipFG8KXShlsR-1">
          <mxGeometry x="135" y="360" width="120" height="80" as="geometry" />
        </mxCell>
        <mxCell id="4qRBzfi4ipFG8KXShlsR-6" value="Manages Schedule&lt;div&gt;room&amp;nbsp;&lt;/div&gt;" style="ellipse;whiteSpace=wrap;html=1;" vertex="1" parent="4qRBzfi4ipFG8KXShlsR-1">
          <mxGeometry x="135" y="490" width="120" height="80" as="geometry" />
        </mxCell>
        <mxCell id="4qRBzfi4ipFG8KXShlsR-7" value="Students" style="shape=umlActor;verticalLabelPosition=bottom;verticalAlign=top;html=1;outlineConnect=0;" vertex="1" parent="1">
          <mxGeometry x="60" y="120" width="30" height="60" as="geometry" />
        </mxCell>
        <mxCell id="4qRBzfi4ipFG8KXShlsR-8" value="Staff PPP UTHM" style="shape=umlActor;verticalLabelPosition=bottom;verticalAlign=top;html=1;outlineConnect=0;" vertex="1" parent="1">
          <mxGeometry x="60" y="370" width="30" height="60" as="geometry" />
        </mxCell>
        <mxCell id="4qRBzfi4ipFG8KXShlsR-10" value="Staff PTTA UTHM" style="shape=umlActor;verticalLabelPosition=bottom;verticalAlign=top;html=1;outlineConnect=0;" vertex="1" parent="1">
          <mxGeometry x="740" y="260" width="30" height="60" as="geometry" />
        </mxCell>
      </root>
    </mxGraphModel>
  </diagram>
</mxfile>
